<?xml version="1.0" encoding="UTF-8" standalone="no"?>
<!-- Created with Inkscape (http://www.inkscape.org/) -->

<svg
   width="300"
   height="60"
   viewBox="0 0 79.374999 15.874999"
   version="1.1"
   id="svg5"
   inkscape:version="1.2.2 (732a01da63, 2022-12-09)"
   sodipodi:docname="wp-logo.svg"
   xmlns:inkscape="http://www.inkscape.org/namespaces/inkscape"
   xmlns:sodipodi="http://sodipodi.sourceforge.net/DTD/sodipodi-0.dtd"
   xmlns="http://www.w3.org/2000/svg"
   xmlns:svg="http://www.w3.org/2000/svg">
  <sodipodi:namedview
     id="namedview7"
     pagecolor="#ffffff"
     bordercolor="#666666"
     borderopacity="1.0"
     inkscape:pageshadow="2"
     inkscape:pageopacity="0.0"
     inkscape:pagecheckerboard="0"
     inkscape:document-units="mm"
     showgrid="false"
     inkscape:showpageshadow="2"
     inkscape:deskcolor="#d1d1d1"
     inkscape:zoom="1.2036126"
     inkscape:cx="276.25169"
     inkscape:cy="136.25647"
     inkscape:window-width="1920"
     inkscape:window-height="1009"
     inkscape:window-x="1912"
     inkscape:window-y="-8"
     inkscape:window-maximized="1"
     inkscape:current-layer="layer1" />
  <defs
     id="defs2" />
  <g
     inkscape:label="Layer 1"
     inkscape:groupmode="layer"
     id="layer1"
     transform="translate(-0.79920037,-3.288376)">
    <g
       aria-label="WeatherPal"
       id="text239"
       style="font-size:12.7px;fill:#e9f0ff;stroke:#00005a;stroke-width:0.3">
      <path
         d="m 18.210902,6.9205758 -2.413,9.0678002 h -1.1557 l -1.7653,-5.9436 q -0.1143,-0.3556002 -0.2159,-0.7239002 -0.0889,-0.381 -0.1651,-0.6604 -0.0635,-0.2921 -0.0762,-0.4064 -0.0127,0.1651 -0.1397,0.7112 -0.127,0.5334 -0.2921,1.1176002 l -1.7145,5.9055 H 9.1177019 L 6.717402,6.9205758 h 1.1937999 l 1.4097,5.5372002 q 0.1524,0.5842 0.254,1.1303 0.1143,0.5461 0.1778,1.0287 0.0635,-0.4953 0.1905,-1.0795 0.1270001,-0.5842 0.2921001,-1.143 l 1.6002,-5.4737002 h 1.1811 l 1.6637,5.5118002 q 0.1778,0.5842 0.3048,1.1684 0.127,0.5842 0.1905,1.016 0.0508,-0.4699 0.1651,-1.016 0.127,-0.5588 0.2794,-1.1557 l 1.397,-5.5245002 z"
         id="path3935" />
      <path
         d="m 21.8304,9.0541758 q 0.8636,0 1.4986,0.381 0.635,0.381 0.9652,1.0795002 0.3429,0.6858 0.3429,1.6129 v 0.6731 h -4.6609 q 0.0254,1.1557 0.5842,1.7653 0.5715,0.5969 1.5875,0.5969 0.6477,0 1.143,-0.1143 0.508,-0.127 1.0414,-0.3556 v 0.9779 q -0.5207,0.2286 -1.0287,0.3302 -0.508,0.1143 -1.2065,0.1143 -0.9779,0 -1.7145,-0.3937 -0.7366,-0.3937 -1.1557,-1.1684 -0.4064,-0.7747 -0.4064,-1.9177 0,-1.1176 0.3683,-1.9177 0.381,-0.8001002 1.0541,-1.2319002 0.6858,-0.4318 1.5875,-0.4318 z m -0.0127,0.9144 q -0.8001,0 -1.27,0.5207002 -0.4572,0.508 -0.5461,1.4224 h 3.4671 q -0.0127,-0.8636 -0.4064,-1.397 -0.3937,-0.5461002 -1.2446,-0.5461002 z"
         id="path3937" />
      <path
         d="m 28.94239,9.0668758 q 1.244599,0 1.841499,0.5461 0.5969,0.5461002 0.5969,1.7399002 v 4.6355 h -0.8128 l -0.2159,-0.9652 h -0.0508 q -0.4445,0.5588 -0.939799,0.8255 -0.4953,0.2667 -1.3462,0.2667 -0.9271,0 -1.5367,-0.4826 -0.6096,-0.4953 -0.6096,-1.5367 0,-1.016 0.8001,-1.5621 0.8001,-0.5588 2.4638,-0.6096 l 1.155699,-0.0381 v -0.4064 q 0,-0.8509 -0.3683,-1.1811 -0.3683,-0.3302002 -1.041399,-0.3302002 -0.5334,0 -1.016,0.1651002 -0.4826,0.1524 -0.9017,0.3556 l -0.3429,-0.8382002 q 0.4445,-0.2413 1.0541,-0.4064 0.6096,-0.1778 1.27,-0.1778 z m 1.333499,3.5941002 -1.003299,0.0381 q -1.27,0.0508 -1.7653,0.4064 -0.4826,0.3556 -0.4826,1.0033 0,0.5715 0.3429,0.8382 0.3556,0.2667 0.9017,0.2667 0.8509,0 1.422399,-0.4699 0.5842,-0.4826 0.5842,-1.4732 z"
         id="path3939" />
      <path
         d="m 35.7623,15.200976 q 0.254,0 0.5207,-0.0381 0.2667,-0.0381 0.4318,-0.1016 v 0.8509 q -0.1778,0.0889 -0.508,0.1397 -0.3302,0.0635 -0.635,0.0635 -0.5334,0 -0.9906,-0.1778 -0.4445,-0.1905 -0.7239,-0.6477 -0.2794,-0.4572 -0.2794,-1.2827 v -3.9624 H 32.6127 V 9.5113758 l 0.9779,-0.4445 0.4445,-1.4478 h 0.6604 v 1.5621 h 1.9685 v 0.8636002 h -1.9685 v 3.937 q 0,0.6223 0.2921,0.9271 0.3048,0.2921 0.7747,0.2921 z"
         id="path3941" />
      <path
         d="m 39.191301,6.3363758 v 2.8321 q 0,0.508 -0.0635,0.9525002 h 0.0762 q 0.3302,-0.5207002 0.889,-0.7874002 0.5715,-0.2667 1.2319,-0.2667 1.2319,0 1.8542,0.5969 0.635,0.5842002 0.635,1.8923002 v 4.4323 h -1.1049 v -4.3561 q 0,-1.6383002 -1.524,-1.6383002 -1.143,0 -1.5748,0.6477002 -0.4191,0.635 -0.4191,1.8288 v 3.5179 h -1.1176 V 6.3363758 Z"
         id="path3943" />
      <path
         d="m 48.5512,9.0541758 q 0.8636,0 1.4986,0.381 0.635,0.381 0.9652,1.0795002 0.3429,0.6858 0.3429,1.6129 v 0.6731 H 46.697 q 0.0254,1.1557 0.5842,1.7653 0.5715,0.5969 1.5875,0.5969 0.6477,0 1.143,-0.1143 0.508,-0.127 1.0414,-0.3556 v 0.9779 q -0.5207,0.2286 -1.0287,0.3302 -0.508,0.1143 -1.2065,0.1143 -0.9779,0 -1.7145,-0.3937 -0.7366,-0.3937 -1.1557,-1.1684 -0.4064,-0.7747 -0.4064,-1.9177 0,-1.1176 0.3683,-1.9177 0.381,-0.8001002 1.0541,-1.2319002 0.6858,-0.4318 1.5875,-0.4318 z m -0.0127,0.9144 q -0.8001,0 -1.27,0.5207002 -0.4572,0.508 -0.5461,1.4224 h 3.4671 q -0.0127,-0.8636 -0.4064,-1.397 -0.3937,-0.5461002 -1.2446,-0.5461002 z"
         id="path3945" />
      <path
         d="m 56.260092,9.0541758 q 0.1905,0 0.4064,0.0254 0.2159,0.0127 0.3937,0.0508 l -0.1397,1.0287002 q -0.1651,-0.0381 -0.3683,-0.0635 -0.2032,-0.0254 -0.3683,-0.0254 -0.5207,0 -0.9779,0.2921 -0.4572,0.2794 -0.7366,0.8001 -0.2667,0.508 -0.2667,1.1938 v 3.6322 h -1.1176 V 9.1811758 h 0.9144 l 0.127,1.2446002 h 0.0508 q 0.3175,-0.5588002 0.8382,-0.9652002 0.5334,-0.4064 1.2446,-0.4064 z"
         id="path3947" />
      <path
         d="m 60.882894,6.9205758 q 1.778,0 2.5908,0.6985 0.8128,0.6985 0.8128,1.9685 0,0.7493002 -0.3429,1.4097002 -0.3302,0.6477 -1.1303,1.0541 -0.7874,0.4064 -2.1463,0.4064 h -1.0414 v 3.5306 h -1.143 V 6.9205758 Z m -0.1016,0.9779 h -1.1557 v 3.5814002 h 0.9144 q 1.2954,0 1.9304,-0.4191 0.635,-0.4191 0.635,-1.4224002 0,-0.8763 -0.5715,-1.3081 -0.5588,-0.4318 -1.7526,-0.4318 z"
         id="path3949" />
      <path
         d="m 68.591784,9.0668758 q 1.2446,0 1.8415,0.5461 0.5969,0.5461002 0.5969,1.7399002 v 4.6355 h -0.8128 l -0.2159,-0.9652 h -0.0508 q -0.4445,0.5588 -0.9398,0.8255 -0.4953,0.2667 -1.346199,0.2667 -0.9271,0 -1.5367,-0.4826 -0.6096,-0.4953 -0.6096,-1.5367 0,-1.016 0.8001,-1.5621 0.8001,-0.5588 2.463799,-0.6096 l 1.1557,-0.0381 v -0.4064 q 0,-0.8509 -0.3683,-1.1811 -0.3683,-0.3302002 -1.0414,-0.3302002 -0.533399,0 -1.015999,0.1651002 -0.4826,0.1524 -0.9017,0.3556 l -0.3429,-0.8382002 q 0.4445,-0.2413 1.0541,-0.4064 0.6096,-0.1778 1.269999,-0.1778 z m 1.3335,3.5941002 -1.0033,0.0381 q -1.269999,0.0508 -1.765299,0.4064 -0.4826,0.3556 -0.4826,1.0033 0,0.5715 0.3429,0.8382 0.3556,0.2667 0.9017,0.2667 0.850899,0 1.422399,-0.4699 0.5842,-0.4826 0.5842,-1.4732 z"
         id="path3951" />
      <path
         d="m 74.255998,15.988376 h -1.1176 V 6.3363758 h 1.1176 z"
         id="path3953" />
    </g>
  </g>
</svg>
